<?xml version="1.0" encoding="UTF-8" standalone="no"?>
<svg
   width="72.888649"
   height="78.995331"
   version="1.1"
   id="svg26"
   sodipodi:docname="illustration-box-desktop.svg"
   inkscape:version="1.1 (c68e22c387, 2021-05-23)"
   xmlns:inkscape="http://www.inkscape.org/namespaces/inkscape"
   xmlns:sodipodi="http://sodipodi.sourceforge.net/DTD/sodipodi-0.dtd"
   xmlns:xlink="http://www.w3.org/1999/xlink"
   xmlns="http://www.w3.org/2000/svg"
   xmlns:svg="http://www.w3.org/2000/svg">
  <sodipodi:namedview
     id="namedview28"
     pagecolor="#ffffff"
     bordercolor="#666666"
     borderopacity="1.0"
     inkscape:pageshadow="2"
     inkscape:pageopacity="0.0"
     inkscape:pagecheckerboard="0"
     showgrid="false"
     inkscape:zoom="4.1521739"
     inkscape:cx="37.089005"
     inkscape:cy="69.361257"
     inkscape:window-width="1920"
     inkscape:window-height="1017"
     inkscape:window-x="-8"
     inkscape:window-y="-8"
     inkscape:window-maximized="1"
     inkscape:current-layer="svg26"
     fit-margin-top="0"
     fit-margin-left="0"
     fit-margin-right="0"
     fit-margin-bottom="0" />
  <defs
     id="defs10">
    <filter
       x="-0.67147893"
       y="-0.73264546"
       width="2.3429579"
       height="2.7705599"
       filterUnits="objectBoundingBox"
       id="a">
      <feOffset
         dy="25"
         in="SourceAlpha"
         result="shadowOffsetOuter1"
         id="feOffset2" />
      <feGaussianBlur
         stdDeviation="25"
         in="shadowOffsetOuter1"
         result="shadowBlurOuter1"
         id="feGaussianBlur4" />
      <feColorMatrix
         values="0 0 0 0 0.209139076 0 0 0 0 0.0691446444 0 0 0 0 0.478091033 0 0 0 0.497159091 0"
         in="shadowBlurOuter1"
         id="feColorMatrix6" />
    </filter>
    <path
       id="b"
       d="m 0,27.756 v 53.87 l 41.968,24.035 47.387,-28.025 v -53.87" />
  </defs>
  <g
     fill="none"
     fill-rule="evenodd"
     id="g24"
     transform="matrix(0.34815812,0,0,0.34815812,3.157794,11.875325)">
    <g
       transform="translate(50.93,2.125)"
       id="g16">
      <use
         fill="#000000"
         filter="url(#a)"
         xlink:href="#b"
         id="use12"
         x="0"
         y="0"
         width="100%"
         height="100%" />
      <use
         fill="#ff9271"
         xlink:href="#b"
         id="use14"
         x="0"
         y="0"
         width="100%"
         height="100%" />
    </g>
    <path
       fill="#df5c34"
       fill-rule="nonzero"
       d="m 92.899,53.917 v 53.87 l 47.387,-28.026 v -53.87 z"
       id="path18" />
    <path
       fill="#f47b56"
       fill-rule="nonzero"
       d="M 50.93,29.88 99.624,2.126 140.286,25.893 92.899,53.918 Z"
       id="path20" />
    <path
       d="m 94.013,14.49 a 25.942,25.942 0 0 1 14.207,3.129 c 2.486,1.462 3.844,2.988 4.036,4.579 0.192,1.59 -0.628,2.975 -2.562,4.143 a 9.115,9.115 0 0 1 -2.985,1.18 c -0.869,0.205 -1.76,0.295 -2.652,0.269 l -0.974,-0.077 c 0.091,0.217 0.151,0.446 0.18,0.68 a 3.132,3.132 0 0 1 -0.513,1.552 5.704,5.704 0 0 1 -2.1,2.065 12.633,12.633 0 0 1 -6.7,1.77 13.247,13.247 0 0 1 -6.957,-1.757 c -1.999,-1.18 -3.023,-2.566 -3.1,-4.156 a 4.49,4.49 0 0 1 2.562,-4.015 8.488,8.488 0 0 1 2.357,-1.013 9.175,9.175 0 0 1 2.037,-0.346 h 0.705 l -1.282,-0.77 3.6,-2.244 8.34,4.912 a 4.377,4.377 0 0 0 4.15,0 c 1.769,-1.103 1.137,-2.552 -1.895,-4.348 A 19.261,19.261 0 0 0 93.911,17.696 21.67,21.67 0 0 0 82.893,20.864 c -3.023,1.89 -4.522,4.143 -4.496,6.76 0,2.564 1.601,4.848 4.714,6.682 a 21.015,21.015 0 0 0 11.146,2.655 20.926,20.926 0 0 0 11.017,-2.925 12.353,12.353 0 0 0 3.062,-2.565 5.683,5.683 0 0 0 1.28,-2.18 l 0.18,-0.808 4.753,0.269 c 0.008,0.145 0.008,0.29 0,0.436 a 8.216,8.216 0 0 1 -0.346,1.154 8.303,8.303 0 0 1 -0.82,1.72 11.912,11.912 0 0 1 -1.69,2 15.952,15.952 0 0 1 -2.755,2.13 25.602,25.602 0 0 1 -9.326,3.36 35.176,35.176 0 0 1 -10.877,0.192 24.896,24.896 0 0 1 -9.339,-3.053 12.127,12.127 0 0 1 -5.304,-5.566 8.192,8.192 0 0 1 0,-6.593 12.692,12.692 0 0 1 5.266,-5.759 28.966,28.966 0 0 1 14.655,-4.284 z m 4.663,13.262 c -0.17,-0.891 -0.77,-1.64 -1.601,-2.001 a 6.579,6.579 0 0 0 -3.33,-0.911 5.619,5.619 0 0 0 -3.101,0.795 2.283,2.283 0 0 0 -1.281,2.001 c 0.117,0.89 0.69,1.654 1.512,2.014 a 6.54,6.54 0 0 0 3.394,0.86 6.092,6.092 0 0 0 3.254,-0.847 2.065,2.065 0 0 0 1.205,-1.911"
       fill="#3e2928"
       fill-rule="nonzero"
       id="path22" />
  </g>
</svg>
